<mxfile host="Electron" agent="Mozilla/5.0 (Windows NT 10.0; Win64; x64) AppleWebKit/537.36 (KHTML, like Gecko) draw.io/24.7.8 Chrome/128.0.6613.36 Electron/32.0.1 Safari/537.36" version="24.7.8">
  <diagram name="Page-1" id="0nVaECOgFt6xsnigmUDd">
    <mxGraphModel dx="877" dy="1010" grid="1" gridSize="10" guides="1" tooltips="1" connect="1" arrows="1" fold="1" page="1" pageScale="1" pageWidth="850" pageHeight="1100" math="0" shadow="0">
      <root>
        <mxCell id="0" />
        <mxCell id="1" parent="0" />
        <mxCell id="S2KaIuIs3MOAHL9w8Z4k-5" value="" style="edgeStyle=orthogonalEdgeStyle;rounded=0;orthogonalLoop=1;jettySize=auto;html=1;" edge="1" parent="1" source="S2KaIuIs3MOAHL9w8Z4k-1" target="S2KaIuIs3MOAHL9w8Z4k-2">
          <mxGeometry relative="1" as="geometry" />
        </mxCell>
        <mxCell id="S2KaIuIs3MOAHL9w8Z4k-1" value="Start" style="rounded=1;whiteSpace=wrap;html=1;" vertex="1" parent="1">
          <mxGeometry x="365" y="50" width="120" height="60" as="geometry" />
        </mxCell>
        <mxCell id="S2KaIuIs3MOAHL9w8Z4k-6" value="" style="edgeStyle=orthogonalEdgeStyle;rounded=0;orthogonalLoop=1;jettySize=auto;html=1;" edge="1" parent="1" source="S2KaIuIs3MOAHL9w8Z4k-2" target="S2KaIuIs3MOAHL9w8Z4k-4">
          <mxGeometry relative="1" as="geometry" />
        </mxCell>
        <mxCell id="S2KaIuIs3MOAHL9w8Z4k-2" value="first_num: (int)" style="shape=card;whiteSpace=wrap;html=1;" vertex="1" parent="1">
          <mxGeometry x="365" y="160" width="115" height="60" as="geometry" />
        </mxCell>
        <mxCell id="S2KaIuIs3MOAHL9w8Z4k-8" value="" style="edgeStyle=orthogonalEdgeStyle;rounded=0;orthogonalLoop=1;jettySize=auto;html=1;" edge="1" parent="1" source="S2KaIuIs3MOAHL9w8Z4k-4" target="S2KaIuIs3MOAHL9w8Z4k-7">
          <mxGeometry relative="1" as="geometry" />
        </mxCell>
        <mxCell id="S2KaIuIs3MOAHL9w8Z4k-4" value="second_num: (int)" style="shape=card;whiteSpace=wrap;html=1;" vertex="1" parent="1">
          <mxGeometry x="368" y="280" width="115" height="60" as="geometry" />
        </mxCell>
        <mxCell id="S2KaIuIs3MOAHL9w8Z4k-10" value="" style="edgeStyle=orthogonalEdgeStyle;rounded=0;orthogonalLoop=1;jettySize=auto;html=1;" edge="1" parent="1" source="S2KaIuIs3MOAHL9w8Z4k-7" target="S2KaIuIs3MOAHL9w8Z4k-9">
          <mxGeometry relative="1" as="geometry" />
        </mxCell>
        <mxCell id="S2KaIuIs3MOAHL9w8Z4k-15" value="yes" style="edgeLabel;html=1;align=center;verticalAlign=middle;resizable=0;points=[];" vertex="1" connectable="0" parent="S2KaIuIs3MOAHL9w8Z4k-10">
          <mxGeometry x="0.0042" y="-4" relative="1" as="geometry">
            <mxPoint as="offset" />
          </mxGeometry>
        </mxCell>
        <mxCell id="S2KaIuIs3MOAHL9w8Z4k-12" value="" style="edgeStyle=orthogonalEdgeStyle;rounded=0;orthogonalLoop=1;jettySize=auto;html=1;" edge="1" parent="1" source="S2KaIuIs3MOAHL9w8Z4k-7" target="S2KaIuIs3MOAHL9w8Z4k-11">
          <mxGeometry relative="1" as="geometry" />
        </mxCell>
        <mxCell id="S2KaIuIs3MOAHL9w8Z4k-21" value="No" style="edgeLabel;html=1;align=center;verticalAlign=middle;resizable=0;points=[];" vertex="1" connectable="0" parent="S2KaIuIs3MOAHL9w8Z4k-12">
          <mxGeometry x="-0.0458" y="-3" relative="1" as="geometry">
            <mxPoint as="offset" />
          </mxGeometry>
        </mxCell>
        <mxCell id="S2KaIuIs3MOAHL9w8Z4k-7" value="first_num &amp;lt; second_num" style="rhombus;whiteSpace=wrap;html=1;" vertex="1" parent="1">
          <mxGeometry x="382.5" y="400" width="80" height="80" as="geometry" />
        </mxCell>
        <mxCell id="S2KaIuIs3MOAHL9w8Z4k-16" value="" style="edgeStyle=orthogonalEdgeStyle;rounded=0;orthogonalLoop=1;jettySize=auto;html=1;" edge="1" parent="1" source="S2KaIuIs3MOAHL9w8Z4k-9" target="S2KaIuIs3MOAHL9w8Z4k-14">
          <mxGeometry relative="1" as="geometry" />
        </mxCell>
        <mxCell id="S2KaIuIs3MOAHL9w8Z4k-9" value="range(first, second + 1)" style="ellipse;whiteSpace=wrap;html=1;" vertex="1" parent="1">
          <mxGeometry x="542.5" y="400" width="80" height="80" as="geometry" />
        </mxCell>
        <mxCell id="S2KaIuIs3MOAHL9w8Z4k-17" value="" style="edgeStyle=orthogonalEdgeStyle;rounded=0;orthogonalLoop=1;jettySize=auto;html=1;" edge="1" parent="1" source="S2KaIuIs3MOAHL9w8Z4k-11" target="S2KaIuIs3MOAHL9w8Z4k-13">
          <mxGeometry relative="1" as="geometry" />
        </mxCell>
        <mxCell id="S2KaIuIs3MOAHL9w8Z4k-11" value="range(first, second - 1, -1" style="ellipse;whiteSpace=wrap;html=1;" vertex="1" parent="1">
          <mxGeometry x="222.5" y="400" width="80" height="80" as="geometry" />
        </mxCell>
        <mxCell id="S2KaIuIs3MOAHL9w8Z4k-19" style="edgeStyle=orthogonalEdgeStyle;rounded=0;orthogonalLoop=1;jettySize=auto;html=1;" edge="1" parent="1" source="S2KaIuIs3MOAHL9w8Z4k-13" target="S2KaIuIs3MOAHL9w8Z4k-18">
          <mxGeometry relative="1" as="geometry" />
        </mxCell>
        <mxCell id="S2KaIuIs3MOAHL9w8Z4k-13" value="i" style="shape=document;whiteSpace=wrap;html=1;boundedLbl=1;" vertex="1" parent="1">
          <mxGeometry x="202.5" y="560" width="120" height="80" as="geometry" />
        </mxCell>
        <mxCell id="S2KaIuIs3MOAHL9w8Z4k-20" style="edgeStyle=orthogonalEdgeStyle;rounded=0;orthogonalLoop=1;jettySize=auto;html=1;" edge="1" parent="1" source="S2KaIuIs3MOAHL9w8Z4k-14">
          <mxGeometry relative="1" as="geometry">
            <mxPoint x="420" y="690" as="targetPoint" />
          </mxGeometry>
        </mxCell>
        <mxCell id="S2KaIuIs3MOAHL9w8Z4k-14" value="i" style="shape=document;whiteSpace=wrap;html=1;boundedLbl=1;" vertex="1" parent="1">
          <mxGeometry x="522.5" y="560" width="120" height="80" as="geometry" />
        </mxCell>
        <mxCell id="S2KaIuIs3MOAHL9w8Z4k-18" value="End" style="rounded=1;whiteSpace=wrap;html=1;" vertex="1" parent="1">
          <mxGeometry x="362.5" y="690" width="120" height="60" as="geometry" />
        </mxCell>
      </root>
    </mxGraphModel>
  </diagram>
</mxfile>
